M48
; DRILL file {KiCad (6.0.10)} date Sat Apr 15 17:26:39 2023
; FORMAT={-:-/ absolute / metric / decimal}
; #@! TF.CreationDate,2023-04-15T17:26:39+02:00
; #@! TF.GenerationSoftware,Kicad,Pcbnew,(6.0.10)
; #@! TF.FileFunction,Plated,1,2,PTH
FMAT,2
METRIC
; #@! TA.AperFunction,Plated,PTH,ViaDrill
T1C0.400
; #@! TA.AperFunction,Plated,PTH,ComponentDrill
T2C0.500
; #@! TA.AperFunction,Plated,PTH,ComponentDrill
T3C0.762
; #@! TA.AperFunction,Plated,PTH,ComponentDrill
T4C0.800
; #@! TA.AperFunction,Plated,PTH,ComponentDrill
T5C0.990
; #@! TA.AperFunction,Plated,PTH,ComponentDrill
T6C1.000
; #@! TA.AperFunction,Plated,PTH,ComponentDrill
T7C1.100
; #@! TA.AperFunction,Plated,PTH,ComponentDrill
T8C1.300
; #@! TA.AperFunction,Plated,PTH,ComponentDrill
T9C1.600
; #@! TA.AperFunction,Plated,PTH,ComponentDrill
T10C3.200
%
G90
G05
T1
X133.5Y-109.5
X133.506Y-110.744
X139.5Y-105.0
X144.5Y-105.0
X149.75Y-105.0
X151.23Y-62.028
X153.77Y-58.98
X154.75Y-105.0
X159.75Y-105.0
X161.39Y-65.584
X161.39Y-84.38
X163.93Y-66.346
X166.25Y-105.0
X177.2Y-72.5
X178.0Y-57.974
X179.27Y-76.77
X179.27Y-77.786
X180.54Y-61.993
X180.54Y-70.674
X183.0Y-94.397
X183.0Y-98.0
X183.0Y-102.5
X183.08Y-46.29
X185.62Y-45.528
X186.89Y-51.37
X188.16Y-45.782
X188.922Y-49.084
X189.43Y-53.148
X190.7Y-69.15
X190.7Y-89.47
X191.97Y-77.532
X191.97Y-91.756
X192.0Y-98.0
X193.3Y-87.3
X193.5Y-98.0
X193.75Y-83.75
X195.75Y-82.554
X195.78Y-69.912
X198.75Y-61.75
X199.454Y-46.954
X204.0Y-94.25
X204.924Y-42.6
X205.0Y-109.25
X205.003Y-94.25
X205.003Y-97.0
X205.686Y-36.13
X205.686Y-70.42
X205.686Y-82.612
X206.4Y-38.4
X206.448Y-58.736
X206.448Y-79.818
X208.5Y-102.5
X211.02Y-40.956
X212.29Y-33.59
X213.067Y-58.736
X213.56Y-61.983
X213.6Y-97.95
X213.6Y-108.5
X214.83Y-65.848
X216.15Y-65.35
X217.37Y-33.082
X217.37Y-44.512
X217.5Y-97.9
X218.503Y-97.853
X218.64Y-51.37
X218.689Y-57.212
X219.91Y-45.274
X219.91Y-49.25
X221.18Y-44.512
X221.18Y-57.974
X221.2Y-51.3
X222.45Y-46.036
X222.45Y-77.532
X223.72Y-53.142
X223.72Y-65.848
X224.773Y-43.75
X225.0Y-90.5
X226.3Y-51.3
X229.65Y-98.75
X229.65Y-100.25
X234.0Y-92.1
X234.0Y-93.212
X234.134Y-51.25
X234.134Y-84.39
X234.896Y-40.956
X234.896Y-72.198
X238.96Y-65.848
X238.997Y-52.247
X239.012Y-97.512
X240.282Y-82.75
X240.738Y-36.13
X241.6Y-96.7
X242.77Y-56.704
X242.77Y-77.532
X244.04Y-64.324
X244.04Y-70.928
X244.04Y-89.47
X245.3Y-39.2
X245.4Y-92.5
X246.58Y-76.77
X246.632Y-38.418
X247.8Y-39.9
X247.85Y-56.45
X251.712Y-78.75
X252.0Y-90.5
X254.0Y-90.5
T2
X164.9Y-37.932
X164.9Y-39.832
T3
X106.54Y-149.34
X106.86Y-151.95
X107.47Y-146.88
X108.35Y-154.12
X109.44Y-145.13
X110.68Y-155.34
X112.0Y-144.5
X113.32Y-155.34
X114.56Y-145.13
X115.65Y-154.12
X116.53Y-146.88
X117.14Y-151.95
X117.46Y-149.34
X128.54Y-149.34
X128.86Y-151.95
X129.47Y-146.88
X130.35Y-154.12
X131.44Y-145.13
X132.68Y-155.34
X134.0Y-144.5
X135.32Y-155.34
X136.56Y-145.13
X137.65Y-154.12
X138.53Y-146.88
X139.14Y-151.95
X139.46Y-149.34
X168.54Y-149.34
X168.86Y-151.95
X169.47Y-146.88
X170.35Y-154.12
X171.44Y-145.13
X172.68Y-155.34
X174.0Y-144.5
X175.32Y-155.34
X176.56Y-145.13
X177.65Y-154.12
X178.53Y-146.88
X179.14Y-151.95
X179.46Y-149.34
X190.54Y-149.34
X190.86Y-151.95
X191.47Y-146.88
X192.35Y-154.12
X193.44Y-145.13
X194.68Y-155.34
X196.0Y-144.5
X197.32Y-155.34
X198.56Y-145.13
X199.65Y-154.12
X200.53Y-146.88
X201.14Y-151.95
X201.46Y-149.34
X230.54Y-149.34
X230.86Y-151.95
X231.47Y-146.88
X232.35Y-154.12
X233.44Y-145.13
X234.68Y-155.34
X236.0Y-144.5
X237.32Y-155.34
X238.56Y-145.13
X239.65Y-154.12
X240.53Y-146.88
X241.14Y-151.95
X241.46Y-149.34
X252.54Y-149.34
X252.86Y-151.95
X253.47Y-146.88
X254.35Y-154.12
X255.44Y-145.13
X256.68Y-155.34
X258.0Y-144.5
X259.32Y-155.34
X260.56Y-145.13
X261.65Y-154.12
X262.53Y-146.88
X263.14Y-151.95
X263.46Y-149.34
T4
X103.378Y-123.698
X103.378Y-127.0
X103.378Y-137.668
X103.452Y-72.45
X103.452Y-82.61
X103.458Y-130.302
X104.397Y-64.6
X106.5Y-72.45
X106.5Y-82.61
X108.197Y-64.6
X108.204Y-110.744
X108.204Y-120.904
X108.458Y-130.302
X109.88Y-69.91
X109.88Y-72.45
X109.88Y-74.99
X109.88Y-77.53
X111.495Y-54.8
X111.495Y-59.8
X112.014Y-115.824
X112.014Y-118.364
X112.014Y-120.904
X112.014Y-129.794
X112.014Y-132.334
X112.014Y-134.874
X113.538Y-123.698
X113.538Y-127.0
X113.538Y-137.668
X114.649Y-59.8
X114.66Y-81.43
X117.149Y-59.8
X117.2Y-81.43
X117.5Y-69.91
X117.5Y-72.45
X117.5Y-74.99
X117.5Y-77.53
X117.856Y-123.698
X117.856Y-127.0
X117.856Y-137.668
X117.936Y-130.302
X119.74Y-81.43
X120.7Y-59.8
X121.4Y-67.43
X121.4Y-72.43
X122.6Y-75.52
X122.6Y-83.14
X122.682Y-110.744
X122.682Y-120.904
X122.936Y-130.302
X123.2Y-59.8
X125.8Y-97.335
X125.8Y-101.135
X126.0Y-69.93
X126.1Y-73.05
X126.1Y-83.21
X126.492Y-115.824
X126.492Y-118.364
X126.492Y-120.904
X126.492Y-129.794
X126.492Y-132.334
X126.492Y-134.874
X128.016Y-123.698
X128.016Y-127.0
X128.016Y-137.668
X131.0Y-69.93
X133.7Y-78.25
X133.7Y-88.41
X133.7Y-90.95
X133.7Y-101.11
X137.414Y-107.696
X137.414Y-117.856
X137.414Y-120.142
X137.414Y-122.682
X137.414Y-125.222
X137.414Y-127.508
X137.414Y-137.668
X142.494Y-107.696
X142.494Y-117.856
X142.494Y-120.142
X142.494Y-122.682
X142.494Y-125.222
X142.494Y-127.508
X142.494Y-137.668
X147.574Y-107.696
X147.574Y-117.856
X147.574Y-120.142
X147.574Y-122.682
X147.574Y-125.222
X147.574Y-127.508
X147.574Y-137.668
X149.942Y-72.95
X149.942Y-80.57
X149.96Y-47.55
X149.96Y-55.17
X149.96Y-60.25
X149.96Y-67.87
X149.96Y-85.65
X149.96Y-93.27
X149.96Y-96.826
X150.153Y-37.104
X150.153Y-40.66
X150.153Y-44.24
X152.482Y-72.95
X152.482Y-80.57
X152.5Y-47.55
X152.5Y-55.17
X152.5Y-60.25
X152.5Y-67.87
X152.5Y-85.65
X152.5Y-93.27
X152.654Y-107.696
X152.654Y-117.856
X152.654Y-120.142
X152.654Y-122.682
X152.654Y-125.222
X152.654Y-127.508
X152.654Y-137.668
X155.022Y-72.95
X155.022Y-80.57
X155.04Y-47.55
X155.04Y-55.17
X155.04Y-60.25
X155.04Y-67.87
X155.04Y-85.65
X155.04Y-93.27
X157.562Y-72.95
X157.562Y-80.57
X157.58Y-47.55
X157.58Y-55.17
X157.58Y-60.25
X157.58Y-67.87
X157.58Y-85.65
X157.58Y-93.27
X157.734Y-107.696
X157.734Y-117.856
X157.734Y-120.142
X157.734Y-122.682
X157.734Y-125.222
X157.734Y-127.508
X157.734Y-137.668
X160.102Y-72.95
X160.102Y-80.57
X160.12Y-47.55
X160.12Y-55.17
X160.12Y-60.25
X160.12Y-67.87
X160.12Y-85.65
X160.12Y-93.27
X160.12Y-96.826
X160.313Y-37.104
X160.313Y-40.66
X160.313Y-44.24
X162.642Y-72.95
X162.642Y-80.57
X162.66Y-47.55
X162.66Y-55.17
X162.66Y-60.25
X162.66Y-67.87
X162.66Y-85.65
X162.66Y-93.27
X163.67Y-34.554
X163.67Y-43.19
X164.084Y-120.142
X164.084Y-122.682
X164.084Y-125.222
X164.084Y-107.696
X164.084Y-117.856
X164.476Y-96.838
X165.182Y-72.95
X165.182Y-80.57
X165.2Y-47.55
X165.2Y-55.17
X165.2Y-60.25
X165.2Y-67.87
X165.2Y-85.65
X165.2Y-93.27
X167.74Y-47.55
X167.74Y-55.17
X168.67Y-34.554
X168.67Y-43.19
X168.7Y-127.42
X168.7Y-137.58
X169.008Y-86.912
X169.008Y-91.912
X169.01Y-74.2
X169.01Y-79.2
X169.026Y-61.563
X169.026Y-66.563
X169.476Y-96.838
X171.55Y-48.8
X171.55Y-53.8
X172.212Y-123.698
X172.212Y-127.0
X172.212Y-137.668
X172.292Y-130.302
X177.038Y-110.744
X177.038Y-120.904
X177.292Y-130.302
X179.27Y-47.56
X179.27Y-55.18
X179.27Y-85.66
X179.27Y-93.28
X179.302Y-34.86
X179.302Y-42.48
X179.322Y-60.26
X179.322Y-67.88
X179.322Y-72.96
X179.322Y-80.58
X180.848Y-115.824
X180.848Y-118.364
X180.848Y-120.904
X180.848Y-129.794
X180.848Y-132.334
X180.848Y-134.874
X181.81Y-47.56
X181.81Y-55.18
X181.81Y-85.66
X181.81Y-93.28
X181.842Y-34.86
X181.842Y-42.48
X181.862Y-60.26
X181.862Y-67.88
X181.862Y-72.96
X181.862Y-80.58
X182.372Y-123.698
X182.372Y-127.0
X182.372Y-137.668
X184.35Y-47.56
X184.35Y-55.18
X184.35Y-85.66
X184.35Y-93.28
X184.382Y-34.86
X184.382Y-42.48
X184.402Y-60.26
X184.402Y-67.88
X184.402Y-72.96
X184.402Y-80.58
X186.89Y-47.56
X186.89Y-55.18
X186.89Y-85.66
X186.89Y-93.28
X186.922Y-34.86
X186.922Y-42.48
X186.942Y-60.26
X186.942Y-67.88
X186.942Y-72.96
X186.942Y-80.58
X187.198Y-123.698
X187.198Y-127.0
X187.198Y-137.668
X187.238Y-130.302
X189.43Y-47.56
X189.43Y-55.18
X189.43Y-85.66
X189.43Y-93.28
X189.462Y-34.86
X189.462Y-42.48
X189.482Y-60.26
X189.482Y-67.88
X189.482Y-72.96
X189.482Y-80.58
X191.97Y-47.56
X191.97Y-55.18
X191.97Y-85.66
X191.97Y-93.28
X192.002Y-34.86
X192.002Y-42.48
X192.022Y-60.26
X192.022Y-67.88
X192.022Y-72.96
X192.022Y-80.58
X192.024Y-110.744
X192.024Y-120.904
X192.238Y-130.302
X194.51Y-47.56
X194.51Y-55.18
X194.51Y-85.66
X194.51Y-93.28
X194.542Y-34.86
X194.542Y-42.48
X194.562Y-60.26
X194.562Y-67.88
X194.562Y-72.96
X194.562Y-80.58
X195.834Y-115.824
X195.834Y-118.364
X195.834Y-120.904
X195.834Y-129.794
X195.834Y-132.334
X195.834Y-134.874
X197.05Y-47.56
X197.05Y-55.18
X197.05Y-85.66
X197.05Y-93.28
X197.082Y-34.86
X197.082Y-42.48
X197.102Y-60.26
X197.102Y-67.88
X197.102Y-72.96
X197.102Y-80.58
X197.358Y-123.698
X197.358Y-127.0
X197.358Y-137.668
X200.591Y-48.82
X200.591Y-53.82
X200.623Y-36.12
X200.623Y-41.12
X200.643Y-61.52
X200.643Y-66.52
X200.65Y-86.9
X200.65Y-91.9
X200.658Y-74.21
X200.658Y-79.21
X201.676Y-131.064
X201.676Y-134.366
X201.686Y-122.428
X205.486Y-122.428
X208.502Y-34.86
X208.502Y-42.48
X208.517Y-47.56
X208.517Y-55.18
X208.517Y-60.26
X208.517Y-67.88
X208.532Y-85.7
X208.532Y-93.32
X208.547Y-72.95
X208.547Y-80.57
X210.46Y-119.888
X210.46Y-122.428
X210.46Y-124.968
X210.566Y-107.188
X210.566Y-117.348
X211.042Y-34.86
X211.042Y-42.48
X211.057Y-47.56
X211.057Y-55.18
X211.057Y-60.26
X211.057Y-67.88
X211.072Y-85.7
X211.072Y-93.32
X211.087Y-72.95
X211.087Y-80.57
X211.836Y-131.064
X211.836Y-134.366
X213.582Y-34.86
X213.582Y-42.48
X213.597Y-47.56
X213.597Y-55.18
X213.597Y-60.26
X213.597Y-67.88
X213.612Y-85.7
X213.612Y-93.32
X213.627Y-72.95
X213.627Y-80.57
X216.122Y-34.86
X216.122Y-42.48
X216.137Y-47.56
X216.137Y-55.18
X216.137Y-60.26
X216.137Y-67.88
X216.152Y-85.7
X216.152Y-93.32
X216.167Y-72.95
X216.167Y-80.57
X216.408Y-107.188
X216.408Y-117.348
X216.408Y-119.888
X216.408Y-122.428
X216.408Y-124.968
X216.408Y-127.508
X216.408Y-137.668
X218.662Y-34.86
X218.662Y-42.48
X218.677Y-47.56
X218.677Y-55.18
X218.677Y-60.26
X218.677Y-67.88
X218.692Y-85.7
X218.692Y-93.32
X218.707Y-72.95
X218.707Y-80.57
X221.202Y-34.86
X221.202Y-42.48
X221.217Y-47.56
X221.217Y-55.18
X221.217Y-60.26
X221.217Y-67.88
X221.232Y-85.7
X221.232Y-93.32
X221.247Y-72.95
X221.247Y-80.57
X221.488Y-107.188
X221.488Y-117.348
X221.488Y-119.888
X221.488Y-122.428
X221.488Y-124.968
X221.488Y-127.508
X221.488Y-137.668
X223.742Y-34.86
X223.742Y-42.48
X223.757Y-47.56
X223.757Y-55.18
X223.757Y-60.26
X223.757Y-67.88
X223.772Y-85.7
X223.772Y-93.32
X223.787Y-72.95
X223.787Y-80.57
X226.297Y-47.56
X226.297Y-55.18
X226.297Y-60.26
X226.297Y-67.88
X226.312Y-85.7
X226.312Y-93.32
X226.327Y-72.95
X226.327Y-80.57
X226.568Y-107.188
X226.568Y-117.348
X226.568Y-119.888
X226.568Y-122.428
X226.568Y-124.968
X226.568Y-127.508
X226.568Y-137.668
X227.318Y-36.11
X227.318Y-41.11
X229.816Y-86.95
X229.816Y-91.95
X229.853Y-48.81
X229.853Y-53.81
X229.853Y-61.51
X229.853Y-66.51
X229.868Y-74.21
X229.868Y-79.21
X231.648Y-107.188
X231.648Y-117.348
X231.648Y-119.888
X231.648Y-122.428
X231.648Y-124.968
X231.648Y-127.508
X231.648Y-137.668
X236.437Y-60.255
X236.437Y-67.875
X236.457Y-47.52
X236.457Y-55.14
X236.472Y-34.78
X236.472Y-42.4
X236.472Y-72.92
X236.472Y-80.54
X236.472Y-85.66
X236.472Y-93.28
X236.728Y-107.188
X236.728Y-117.348
X236.728Y-119.888
X236.728Y-122.428
X236.728Y-124.968
X236.728Y-127.508
X236.728Y-137.668
X238.977Y-60.255
X238.977Y-67.875
X238.997Y-47.52
X238.997Y-55.14
X239.012Y-34.78
X239.012Y-42.4
X239.012Y-72.92
X239.012Y-80.54
X239.012Y-85.66
X239.012Y-93.28
X241.517Y-60.255
X241.517Y-67.875
X241.537Y-47.52
X241.537Y-55.14
X241.552Y-34.78
X241.552Y-42.4
X241.552Y-72.92
X241.552Y-80.54
X241.552Y-85.66
X241.552Y-93.28
X241.554Y-123.698
X241.554Y-127.0
X241.554Y-137.668
X241.594Y-130.302
X244.057Y-60.255
X244.057Y-67.875
X244.077Y-47.52
X244.077Y-55.14
X244.092Y-34.78
X244.092Y-42.4
X244.092Y-72.92
X244.092Y-80.54
X244.092Y-85.66
X244.092Y-93.28
X246.38Y-110.744
X246.38Y-120.904
X246.594Y-130.302
X246.597Y-60.255
X246.597Y-67.875
X246.617Y-47.52
X246.617Y-55.14
X246.632Y-34.78
X246.632Y-42.4
X246.632Y-72.92
X246.632Y-80.54
X246.632Y-85.66
X246.632Y-93.28
X248.632Y-99.5
X248.67Y-102.75
X248.67Y-106.0
X249.137Y-60.255
X249.137Y-67.875
X249.157Y-47.52
X249.157Y-55.14
X249.172Y-34.78
X249.172Y-42.4
X249.172Y-72.92
X249.172Y-80.54
X249.172Y-85.66
X249.172Y-93.28
X250.19Y-115.824
X250.19Y-118.364
X250.19Y-120.904
X250.19Y-129.794
X250.19Y-132.334
X250.19Y-134.874
X251.677Y-60.255
X251.677Y-67.875
X251.697Y-47.52
X251.697Y-55.14
X251.712Y-34.78
X251.712Y-42.4
X251.712Y-72.92
X251.712Y-80.54
X251.712Y-85.66
X251.712Y-93.28
X251.714Y-123.698
X251.714Y-127.0
X251.714Y-137.668
X254.217Y-60.255
X254.217Y-67.875
X254.237Y-47.52
X254.237Y-55.14
X254.252Y-72.92
X254.252Y-80.54
X254.252Y-85.66
X254.252Y-93.28
X255.288Y-36.03
X255.288Y-41.03
X256.286Y-123.698
X256.286Y-127.0
X256.286Y-137.668
X256.326Y-130.302
X257.756Y-86.91
X257.756Y-91.91
X257.758Y-61.475
X257.758Y-66.475
X257.778Y-48.82
X257.778Y-53.82
X257.823Y-74.16
X257.823Y-79.16
X258.792Y-99.5
X258.83Y-102.75
X258.83Y-106.0
X261.112Y-110.744
X261.112Y-120.904
X261.326Y-130.302
X264.922Y-115.824
X264.922Y-118.364
X264.922Y-120.904
X264.922Y-129.794
X264.922Y-132.334
X264.922Y-134.874
X266.446Y-123.698
X266.446Y-127.0
X266.446Y-137.668
T5
X266.738Y-61.825
X266.738Y-66.325
X266.738Y-74.425
X266.738Y-78.925
X266.738Y-87.225
X266.738Y-91.725
T6
X152.75Y-147.0
X152.76Y-153.0
X155.29Y-147.0
X155.3Y-153.0
X214.75Y-147.0
X214.76Y-153.0
X217.29Y-147.0
X217.3Y-153.0
T7
X116.05Y-43.78
X116.05Y-46.28
X116.405Y-54.98
X116.66Y-91.93
X118.945Y-54.98
X119.2Y-91.93
X119.2Y-95.42
X119.2Y-103.04
X121.485Y-54.98
X121.74Y-91.93
X121.95Y-43.78
X121.95Y-46.28
X130.35Y-53.7
X130.35Y-63.86
T8
X135.85Y-48.78
X135.85Y-63.78
X140.85Y-48.78
X140.85Y-63.78
X264.248Y-60.575
X264.248Y-67.585
X264.248Y-73.175
X264.248Y-80.185
X264.248Y-85.975
X264.248Y-92.985
T9
X107.0Y-99.43
X113.0Y-99.43
T10
X107.0Y-36.0
X146.0Y-143.0
X224.0Y-143.0
X263.0Y-36.0
T6
G00X131.15Y-38.88
M15
G01X131.15Y-40.88
M16
G05
G00X136.85Y-36.88
M15
G01X134.85Y-36.88
M16
G05
G00X136.85Y-42.88
M15
G01X134.85Y-42.88
M16
G05
T0
M30
